<?xml version="1.0" encoding="UTF-8"?>
<!DOCTYPE svg PUBLIC "-//W3C//DTD SVG 1.1//EN" "http://www.w3.org/Graphics/SVG/1.1/DTD/svg11.dtd">
<!-- Creator: CorelDRAW 2019 (64-Bit) -->
<svg xmlns="http://www.w3.org/2000/svg" xml:space="preserve" width="1402px" height="327px" version="1.1" style="shape-rendering:geometricPrecision; text-rendering:geometricPrecision; image-rendering:optimizeQuality; fill-rule:evenodd; clip-rule:evenodd"
viewBox="0 0 1164.76 271.88"
 xmlns:xlink="http://www.w3.org/1999/xlink"
 xmlns:xodm="http://www.corel.com/coreldraw/odm/2003">
 <defs>
  <style type="text/css">
   <![CDATA[
    .fil0 {fill:black;fill-opacity:0.349020}
   ]]>
  </style>
 </defs>
 <g id="Слой_x0020_1">
  <metadata id="CorelCorpID_0Corel-Layer"/>
  <path class="fil0" d="M0 0.69l1164.6 -0.69 0.16 271.19 -1164.6 0.69 -0.16 -271.19zm504.11 91.7l-37.44 0 0 -11.46c0,-5.36 -0.49,-8.79 -1.44,-10.26 -0.95,-1.47 -2.52,-2.19 -4.74,-2.19 -2.42,0 -4.25,0.98 -5.49,2.97 -1.24,1.96 -1.86,4.94 -1.86,8.95 0,5.17 0.72,9.05 2.12,11.67 1.38,2.58 5.17,5.75 11.41,9.47 17.87,10.69 29.14,19.48 33.78,26.3 4.67,6.83 6.99,17.84 6.99,33 0,11.05 -1.31,19.18 -3.89,24.44 -2.58,5.23 -7.54,9.61 -14.96,13.13 -7.38,3.57 -15.98,5.33 -25.81,5.33 -10.78,0 -19.96,-2.06 -27.61,-6.14 -7.61,-4.09 -12.58,-9.28 -14.96,-15.59 -2.35,-6.34 -3.53,-15.32 -3.53,-26.92l0 -10.16 37.44 0 0 18.85c0,5.82 0.52,9.54 1.57,11.21 1.05,1.67 2.91,2.48 5.59,2.48 2.68,0 4.67,-1.04 5.98,-3.17 1.3,-2.09 1.96,-5.22 1.96,-9.34 0,-9.12 -1.25,-15.1 -3.73,-17.87 -2.58,-2.81 -8.85,-7.52 -18.85,-14.12 -10,-6.63 -16.6,-11.46 -19.86,-14.47 -3.24,-3.01 -5.95,-7.16 -8.07,-12.45 -2.13,-5.29 -3.21,-12.05 -3.21,-20.29 0,-11.86 1.51,-20.55 4.54,-26.04 3.04,-5.49 7.91,-9.77 14.67,-12.87 6.77,-3.1 14.9,-4.64 24.48,-4.64 10.45,0 19.34,1.7 26.72,5.07 7.35,3.39 12.22,7.64 14.61,12.8 2.38,5.13 3.59,13.86 3.59,26.17l0 6.14zm111.77 -47.04l-20.42 155.06 -61.06 0 -23.4 -155.06 42.54 0c4.8,42.76 8.3,78.93 10.49,108.5 2.16,-29.89 4.38,-56.42 6.63,-79.59l2.68 -28.91 42.54 0zm99.29 57.24l-40.38 0 0 -14.08c0,-8.89 -0.36,-14.44 -1.11,-16.67 -0.76,-2.25 -2.55,-3.36 -5.36,-3.36 -2.42,0 -4.09,0.95 -4.97,2.87 -0.88,1.9 -1.31,6.83 -1.31,14.74l0 74.36c0,6.93 0.43,11.53 1.31,13.72 0.88,2.19 2.61,3.3 5.23,3.3 2.87,0 4.8,-1.24 5.85,-3.72 1.01,-2.49 1.53,-7.35 1.53,-14.57l0 -18.37 -7.84 0 0 -23.52 47.05 0 0 83.12 -25.39 0 -3.72 -11.11c-2.75,4.8 -6.21,8.4 -10.36,10.81 -4.18,2.42 -9.11,3.63 -14.77,3.63 -6.76,0 -13.07,-1.63 -18.98,-4.93 -5.88,-3.3 -10.36,-7.35 -13.39,-12.22 -3.08,-4.84 -4.97,-9.93 -5.75,-15.26 -0.76,-5.33 -1.15,-13.33 -1.15,-23.98l0 -46.07c0,-14.8 0.79,-25.55 2.39,-32.25 1.6,-6.73 6.17,-12.87 13.72,-18.45 7.55,-5.59 17.32,-8.37 29.31,-8.37 11.79,0 21.56,2.42 29.33,7.29 7.78,4.87 12.88,10.62 15.23,17.28 2.35,6.7 3.53,16.37 3.53,29.11l0 6.7z"/>
 </g>
</svg>
